<?xml version="1.0"?>
<svg width="700" height="640" xmlns="http://www.w3.org/2000/svg" xmlns:svg="http://www.w3.org/2000/svg" preserveAspectRatio="xMidYMid meet" version="1.0">
 <g class="layer">
  <title>Layer 1</title>
  <g fill="#000000" id="svg_1" transform="translate(0 639) matrix(0.1 0 0 -0.1 0 0)">
   <path d="m1950,5906c-474,-51 -828,-203 -1121,-484c-217,-207 -330,-396 -443,-745c-70,-213 -87,-251 -175,-385c-108,-165 -116,-183 -116,-292c0,-88 3,-100 33,-158c18,-35 62,-106 98,-157c81,-117 110,-180 125,-273c17,-101 0,-231 -47,-365c-52,-148 -53,-159 -12,-190c64,-50 117,-67 204,-67c196,0 360,100 495,304c32,49 59,85 59,79c0,-6 -22,-89 -49,-184c-141,-499 -155,-570 -131,-634l10,-27l-77,7c-143,12 -250,49 -325,113c-18,15 -42,34 -53,42c-19,15 -19,15 0,-17c11,-18 50,-76 87,-131c73,-106 135,-238 195,-413l38,-111l90,-68c256,-192 492,-269 785,-257c358,15 763,178 1081,435c103,83 283,272 346,364l52,75l-67,31c-241,109 -511,141 -852,101c-47,-5 -92,-12 -101,-15c-12,-3 -22,10 -38,55c-25,70 -97,154 -160,190l-42,23l37,-48c103,-134 119,-272 41,-349c-31,-30 -165,-79 -422,-154c-181,-52 -179,-52 -253,-29l-67,21l45,12c48,13 118,46 162,77c33,23 195,65 290,74c80,8 109,24 92,51c-34,56 -148,36 -353,-61c-75,-36 -158,-70 -184,-77c-93,-23 -203,9 -248,72c-41,58 -37,96 51,504c46,209 86,390 91,402c16,44 146,56 267,26c39,-10 170,-68 317,-141c497,-246 674,-302 960,-302c235,0 375,45 647,207c330,197 794,525 940,664l67,64l-35,89c-19,49 -61,144 -93,212c-68,142 -49,128 -246,181c-71,19 -140,38 -153,41c-12,4 61,5 162,4c172,-4 184,-3 189,15c39,135 44,411 9,559c-29,127 -80,259 -138,355c-60,100 -184,234 -286,309c-237,177 -640,312 -1087,366c-177,21 -536,26 -691,10zm1008,-1502c101,-25 224,-85 288,-140l39,-34l-56,25c-31,14 -99,35 -150,47c-126,29 -373,32 -498,5c-197,-43 -380,-117 -665,-269c-370,-199 -439,-213 -519,-106c-14,18 -28,44 -32,58c-7,25 -7,25 9,4c8,-12 29,-27 45,-34c43,-17 90,1 279,108c320,182 523,273 722,324c205,52 365,55 538,12zm-2443,-288c92,-22 215,-78 356,-162c140,-83 191,-98 234,-70c30,20 31,14 5,-29c-25,-40 -68,-59 -117,-52c-20,4 -107,40 -192,81c-211,101 -278,121 -411,121c-84,0 -112,-4 -139,-19l-34,-18l6,38c18,109 125,149 292,110zm2293,-245c46,-12 92,-26 102,-31c19,-10 19,-11 -1,-63c-57,-146 -185,-295 -306,-356c-142,-71 -353,-67 -538,10c-85,35 -245,136 -245,154c0,15 106,100 198,159c108,70 261,128 397,149c72,12 311,-2 393,-22zm-2073,-189c96,-34 174,-78 243,-138l47,-41l-18,-38c-44,-91 -132,-164 -232,-190c-136,-35 -239,23 -319,182c-34,69 -76,191 -76,223c0,48 217,49 355,2z" id="svg_2"/>
   <path d="m5120,4195c-193,-53 -346,-205 -395,-390c-30,-118 -13,-270 42,-364c34,-59 101,-125 155,-152c47,-24 138,-51 138,-41c0,4 -16,18 -36,32c-19,14 -52,47 -74,73c-159,196 -91,488 139,596c49,23 69,26 156,26c94,0 105,-2 168,-33c120,-59 210,-176 237,-306c44,-216 -107,-397 -418,-499c-148,-49 -224,-63 -472,-87c-118,-11 -270,-32 -339,-46c-335,-67 -636,-208 -897,-417c-90,-73 -281,-269 -332,-340l-33,-47l118,83c370,260 630,388 957,472c163,42 302,61 526,75c210,13 337,31 486,70c374,98 598,290 650,556c58,293 -136,618 -429,722c-91,32 -261,40 -347,17z" id="svg_3"/>
   <path d="m6387,3760c-20,-5 -60,-21 -87,-35c-148,-75 -231,-262 -187,-416c20,-67 53,-112 113,-156c51,-36 70,-36 37,0c-70,75 -89,207 -44,299c28,59 106,130 159,146c21,7 64,12 93,12c174,-1 307,-195 255,-375c-14,-45 -29,-69 -69,-109c-103,-103 -229,-142 -509,-156c-266,-13 -419,-43 -614,-120c-81,-32 -208,-99 -202,-106c2,-2 123,10 269,26c159,18 365,34 519,40c276,10 360,23 473,70c142,60 235,143 290,260c99,210 -9,489 -228,592c-53,24 -82,31 -148,34c-45,2 -99,-1 -120,-6z" id="svg_4"/>
   <path d="m4277,3274c-76,-18 -191,-72 -277,-129c-67,-44 -275,-233 -266,-242c2,-2 32,14 67,37c88,56 286,152 391,189c124,43 245,64 380,65c65,0 118,4 118,8c0,12 -100,60 -155,74c-64,17 -183,16 -258,-2z" id="svg_5"/>
   <path d="m6915,2683c-255,-89 -659,-132 -1068,-113c-244,11 -279,14 -657,56c-504,56 -856,14 -1263,-148c-238,-95 -444,-219 -866,-522c-283,-202 -432,-296 -631,-395c-254,-126 -469,-189 -721,-213c-226,-21 -467,22 -675,121c-55,26 -125,65 -155,85c-30,20 -55,32 -57,28c-3,-10 76,-240 99,-288c11,-23 31,-36 95,-61c368,-148 769,-135 1209,38c237,93 468,227 797,462c417,299 604,414 834,513c407,176 781,222 1314,161c362,-42 503,-50 754,-44c391,10 651,65 898,190c103,53 142,89 136,124c-3,19 -5,19 -43,6z" id="svg_6"/>
   <path d="m4904,2291c3,-5 22,-12 41,-15c104,-20 291,-96 540,-221c353,-176 393,-189 620,-189c149,-1 180,2 249,22c100,29 202,80 287,143c87,64 109,90 54,61c-77,-39 -242,-90 -345,-108c-172,-28 -370,-8 -545,57c-33,12 -121,50 -196,85c-173,80 -317,128 -444,148c-124,19 -268,28 -261,17z" id="svg_7"/>
   <path d="m4350,2203c-82,-9 -245,-45 -332,-74c-267,-90 -502,-224 -895,-510c-246,-179 -425,-299 -564,-378c-502,-283 -1019,-368 -1474,-242c-75,21 -75,33 2,-130c54,-114 56,-117 92,-123c381,-61 790,9 1198,204c243,116 370,197 736,463c279,203 432,299 622,392c159,78 305,131 445,161c129,29 434,26 545,-4c114,-31 235,-93 295,-152c166,-161 158,-435 -17,-601c-79,-74 -149,-103 -248,-103c-104,0 -165,26 -235,100c-76,81 -95,129 -95,244c0,115 22,167 101,248c42,41 49,52 33,52c-40,0 -131,-54 -175,-105c-59,-67 -86,-139 -92,-246c-8,-146 36,-256 142,-358c302,-290 805,-111 922,329c23,84 23,234 0,319c-70,271 -312,450 -681,506c-92,14 -238,17 -325,8z" id="svg_8"/>
   <path d="m2840,1049c-376,-242 -677,-367 -1050,-435c-71,-13 -151,-18 -317,-18c-123,-1 -223,-4 -223,-7c0,-12 95,-95 147,-127c28,-18 77,-42 110,-54c153,-57 493,2 743,127c210,106 442,289 640,506c45,49 80,89 78,89c-1,0 -59,-37 -128,-81z" id="svg_9" r="792.3"/>
  </g>
 </g>
</svg>
